<svg width="339" height="91" viewBox="0 0 339 91" fill="none" xmlns="http://www.w3.org/2000/svg">
<g clip-path="url(#clip0_7_5)">
<path d="M73 70V78H81V70H78.3333V67.3333H75.6667V70H73ZM78.3333 72.6667V75.3333H75.6667V72.6667H78.3333ZM17 78H38.3333V56.6667H17V78ZM19.6667 59.3333H35.6667V75.3333H19.6667V59.3333ZM73 67.3333V64.6667H75.6667V67.3333H73ZM22.3333 62H33V72.6667H22.3333V62ZM43.6667 54V59.3333H41V54H43.6667ZM49 32.6667H51.6667V35.3333H49V32.6667ZM51.6667 30H54.3333V32.6667H51.6667V30ZM54.3333 35.3333V32.6667H57V35.3333H54.3333ZM54.3333 30H57V14H49V16.6667H41V19.3333H49V22H54.3333V30ZM51.6667 19.3333V16.6667H54.3333V19.3333H51.6667ZM33 30H22.3333V19.3333H33V30ZM49 30H46.3333V24.6667H41V22H49V24.6667H51.6667V27.3333H49V30ZM38.3333 14H17V35.3333H38.3333V14ZM35.6667 32.6667H19.6667V16.6667H35.6667V32.6667ZM43.6667 32.6667H41V30H46.3333V35.3333H43.6667V32.6667ZM35.6667 40.6667V43.3333H33V40.6667H35.6667ZM75.6667 56.6667H81V64.6667H78.3333V62H73V64.6667H70.3333V62H67.6667V59.3333H70.3333V56.6667H73V59.3333H75.6667V56.6667ZM65 62H62.3333V64.6667H59.6667V62H57V59.3333H59.6667V56.6667H54.3333V54H51.6667V56.6667H49V59.3333H43.6667V62H41V78H54.3333V75.3333H51.6667V70H49V75.3333H43.6667V72.6667H46.3333V70H43.6667V67.3333H51.6667V64.6667H57V70H54.3333V72.6667H57V78H59.6667V72.6667H62.3333V75.3333H65V72.6667H67.6667V67.3333H70.3333V64.6667H65V62ZM62.3333 70H59.6667V67.3333H62.3333V70ZM78.3333 54V48.6667H81V54H78.3333ZM54.3333 67.3333V70H51.6667V67.3333H54.3333ZM67.6667 75.3333V72.6667H70.3333V78H65V75.3333H67.6667ZM59.6667 14V35.3333H81V14H59.6667ZM78.3333 32.6667H62.3333V16.6667H78.3333V32.6667ZM75.6667 30H65V19.3333H75.6667V30ZM78.3333 40.6667H81V46H78.3333V48.6667H73V38H75.6667V43.3333H78.3333V40.6667ZM67.6667 56.6667V48.6667H70.3333V56.6667H67.6667ZM33 38V40.6667H27.6667V43.3333H30.3333V46H22.3333V43.3333H25V40.6667H19.6667V43.3333H17V38H33ZM30.3333 48.6667V46H33V54H30.3333V51.3333H27.6667V54H25V51.3333H22.3333V54H17V51.3333H19.6667V48.6667H30.3333ZM19.6667 46V48.6667H17V46H19.6667ZM70.3333 40.6667H67.6667V38H70.3333V40.6667ZM35.6667 51.3333H38.3333V54H35.6667V51.3333ZM75.6667 56.6667H73V54H75.6667V56.6667ZM62.3333 59.3333V56.6667H65V59.3333H62.3333ZM59.6667 56.6667H62.3333V48.6667H67.6667V46H70.3333V43.3333H67.6667V40.6667H62.3333V38H59.6667V40.6667H57V38H54.3333V40.6667H51.6667V38H49V40.6667H46.3333V43.3333H43.6667V40.6667H46.3333V38H35.6667V40.6667H41V43.3333H35.6667V46H38.3333V51.3333H41V48.6667H46.3333V54H49V43.3333H51.6667V48.6667H59.6667V51.3333H54.3333V54H59.6667V56.6667ZM62.3333 43.3333H65V46H62.3333V43.3333ZM57 46H54.3333V43.3333H57V46Z" fill="black"/>
<path d="M119.2 57.624H118.944C116.811 61.72 113.419 63.768 108.768 63.768C104.715 63.768 101.536 62.2533 99.232 59.224C96.9707 56.1947 95.84 51.9493 95.84 46.488C95.84 41.0267 96.9707 36.7813 99.232 33.752C101.536 30.7227 104.715 29.208 108.768 29.208C113.419 29.208 116.811 31.256 118.944 35.352H119.2V29.976H124.32V75.8H119.2V57.624ZM110.752 59.224C111.904 59.224 112.992 59.0747 114.016 58.776C115.04 58.4773 115.936 58.0507 116.704 57.496C117.472 56.8987 118.069 56.1947 118.496 55.384C118.965 54.5307 119.2 53.5493 119.2 52.44V40.536C119.2 39.4267 118.965 38.4667 118.496 37.656C118.069 36.8027 117.472 36.0987 116.704 35.544C115.936 34.9467 115.04 34.4987 114.016 34.2C112.992 33.9013 111.904 33.752 110.752 33.752C107.765 33.752 105.44 34.6693 103.776 36.504C102.155 38.296 101.344 40.6853 101.344 43.672V49.304C101.344 52.2907 102.155 54.7013 103.776 56.536C105.44 58.328 107.765 59.224 110.752 59.224ZM135.303 58.648H144.967V34.328H135.303V29.976H150.087V38.296H150.407C151.09 35.6933 152.37 33.6667 154.247 32.216C156.167 30.7227 158.599 29.976 161.543 29.976H166.151V35.096H159.943C156.999 35.096 154.61 35.9493 152.775 37.656C150.983 39.3627 150.087 41.6027 150.087 44.376V58.648H162.887V63H135.303V58.648Z" fill="#8AC926"/>
<path d="M172.206 63V29.976H176.942V33.816H177.198C177.71 32.536 178.435 31.448 179.374 30.552C180.313 29.656 181.699 29.208 183.534 29.208C185.454 29.208 186.883 29.6987 187.822 30.68C188.761 31.6187 189.337 32.856 189.55 34.392H189.742C190.339 32.8987 191.193 31.6613 192.302 30.68C193.411 29.6987 194.947 29.208 196.91 29.208C199.598 29.208 201.39 30.1467 202.286 32.024C203.225 33.9013 203.694 36.5893 203.694 40.088V63H198.958V40.92C198.958 38.104 198.659 36.1627 198.062 35.096C197.507 33.9867 196.462 33.432 194.926 33.432C193.561 33.432 192.451 33.88 191.598 34.776C190.745 35.6293 190.318 36.952 190.318 38.744V63H185.582V40.92C185.582 38.104 185.283 36.1627 184.686 35.096C184.131 33.9867 183.107 33.432 181.614 33.432C180.249 33.432 179.118 33.88 178.222 34.776C177.369 35.6293 176.942 36.952 176.942 38.744V63H172.206ZM226.901 63.768C224.512 63.768 222.357 63.3627 220.437 62.552C218.56 61.7413 216.938 60.5893 215.573 59.096C214.25 57.56 213.226 55.7467 212.501 53.656C211.776 51.5227 211.413 49.1547 211.413 46.552C211.413 43.9067 211.776 41.5173 212.501 39.384C213.269 37.2507 214.314 35.4373 215.637 33.944C216.96 32.408 218.538 31.2347 220.373 30.424C222.25 29.6133 224.32 29.208 226.581 29.208C228.8 29.208 230.805 29.6133 232.597 30.424C234.432 31.2347 235.989 32.3653 237.269 33.816C238.549 35.224 239.53 36.9093 240.213 38.872C240.896 40.8347 241.237 42.9893 241.237 45.336V47.768H216.789V49.304C216.789 50.7547 217.024 52.0987 217.493 53.336C217.962 54.5733 218.624 55.64 219.477 56.536C220.373 57.432 221.44 58.136 222.677 58.648C223.957 59.1173 225.365 59.352 226.901 59.352C229.12 59.352 231.04 58.84 232.661 57.816C234.282 56.792 235.52 55.384 236.373 53.592L240.149 56.152C239.168 58.3707 237.525 60.2053 235.221 61.656C232.96 63.064 230.186 63.768 226.901 63.768ZM226.581 33.432C225.173 33.432 223.872 33.688 222.677 34.2C221.482 34.712 220.437 35.416 219.541 36.312C218.688 37.208 218.005 38.2747 217.493 39.512C217.024 40.7067 216.789 42.0293 216.789 43.48V43.928H235.733V43.224C235.733 41.7733 235.498 40.4507 235.029 39.256C234.602 38.0613 233.984 37.0373 233.173 36.184C232.405 35.288 231.445 34.6053 230.293 34.136C229.184 33.6667 227.946 33.432 226.581 33.432ZM251.772 63V29.976H256.892V35.352H257.148C257.489 34.5413 257.916 33.7733 258.428 33.048C258.94 32.28 259.559 31.6187 260.284 31.064C261.052 30.5093 261.948 30.0613 262.972 29.72C263.996 29.3787 265.191 29.208 266.556 29.208C270.012 29.208 272.785 30.3173 274.876 32.536C276.967 34.712 278.012 37.8053 278.012 41.816V63H272.892V42.712C272.892 39.6827 272.231 37.4427 270.908 35.992C269.585 34.4987 267.644 33.752 265.084 33.752C264.06 33.752 263.057 33.88 262.076 34.136C261.095 34.392 260.22 34.776 259.452 35.288C258.684 35.8 258.065 36.4613 257.596 37.272C257.127 38.0827 256.892 39.0213 256.892 40.088V63H251.772ZM310.883 57.624H310.627C310.286 58.4347 309.859 59.224 309.347 59.992C308.835 60.7173 308.195 61.3573 307.427 61.912C306.702 62.4667 305.827 62.9147 304.803 63.256C303.779 63.5973 302.584 63.768 301.219 63.768C297.763 63.768 294.99 62.68 292.899 60.504C290.808 58.2853 289.763 55.1707 289.763 51.16V29.976H294.883V50.264C294.883 53.2933 295.544 55.5547 296.867 57.048C298.19 58.4987 300.131 59.224 302.691 59.224C303.715 59.224 304.718 59.096 305.699 58.84C306.68 58.584 307.555 58.2 308.323 57.688C309.091 57.176 309.71 56.536 310.179 55.768C310.648 54.9573 310.883 53.9973 310.883 52.888V29.976H316.003V63H310.883V57.624Z" fill="black"/>
</g>
<defs>
<clipPath id="clip0_7_5">
<rect width="339" height="91" fill="white"/>
</clipPath>
</defs>
</svg>
