<svg width="387" height="87" viewBox="0 0 387 87" fill="none" xmlns="http://www.w3.org/2000/svg">
<path d="M56 70V78H64V70H61.3333V67.3333H58.6667V70H56ZM61.3333 72.6667V75.3333H58.6667V72.6667H61.3333ZM0 78H21.3333V56.6667H0V78ZM2.66667 59.3333H18.6667V75.3333H2.66667V59.3333ZM56 67.3333V64.6667H58.6667V67.3333H56ZM5.33333 62H16V72.6667H5.33333V62ZM26.6667 54V59.3333H24V54H26.6667ZM32 32.6667H34.6667V35.3333H32V32.6667ZM34.6667 30H37.3333V32.6667H34.6667V30ZM37.3333 35.3333V32.6667H40V35.3333H37.3333ZM37.3333 30H40V14H32V16.6667H24V19.3333H32V22H37.3333V30ZM34.6667 19.3333V16.6667H37.3333V19.3333H34.6667ZM16 30H5.33333V19.3333H16V30ZM32 30H29.3333V24.6667H24V22H32V24.6667H34.6667V27.3333H32V30ZM21.3333 14H0V35.3333H21.3333V14ZM18.6667 32.6667H2.66667V16.6667H18.6667V32.6667ZM26.6667 32.6667H24V30H29.3333V35.3333H26.6667V32.6667ZM18.6667 40.6667V43.3333H16V40.6667H18.6667ZM58.6667 56.6667H64V64.6667H61.3333V62H56V64.6667H53.3333V62H50.6667V59.3333H53.3333V56.6667H56V59.3333H58.6667V56.6667ZM48 62H45.3333V64.6667H42.6667V62H40V59.3333H42.6667V56.6667H37.3333V54H34.6667V56.6667H32V59.3333H26.6667V62H24V78H37.3333V75.3333H34.6667V70H32V75.3333H26.6667V72.6667H29.3333V70H26.6667V67.3333H34.6667V64.6667H40V70H37.3333V72.6667H40V78H42.6667V72.6667H45.3333V75.3333H48V72.6667H50.6667V67.3333H53.3333V64.6667H48V62ZM45.3333 70H42.6667V67.3333H45.3333V70ZM61.3333 54V48.6667H64V54H61.3333ZM37.3333 67.3333V70H34.6667V67.3333H37.3333ZM50.6667 75.3333V72.6667H53.3333V78H48V75.3333H50.6667ZM42.6667 14V35.3333H64V14H42.6667ZM61.3333 32.6667H45.3333V16.6667H61.3333V32.6667ZM58.6667 30H48V19.3333H58.6667V30ZM61.3333 40.6667H64V46H61.3333V48.6667H56V38H58.6667V43.3333H61.3333V40.6667ZM50.6667 56.6667V48.6667H53.3333V56.6667H50.6667ZM16 38V40.6667H10.6667V43.3333H13.3333V46H5.33333V43.3333H8V40.6667H2.66667V43.3333H0V38H16ZM13.3333 48.6667V46H16V54H13.3333V51.3333H10.6667V54H8V51.3333H5.33333V54H0V51.3333H2.66667V48.6667H13.3333ZM2.66667 46V48.6667H0V46H2.66667ZM53.3333 40.6667H50.6667V38H53.3333V40.6667ZM18.6667 51.3333H21.3333V54H18.6667V51.3333ZM58.6667 56.6667H56V54H58.6667V56.6667ZM45.3333 59.3333V56.6667H48V59.3333H45.3333ZM42.6667 56.6667H45.3333V48.6667H50.6667V46H53.3333V43.3333H50.6667V40.6667H45.3333V38H42.6667V40.6667H40V38H37.3333V40.6667H34.6667V38H32V40.6667H29.3333V43.3333H26.6667V40.6667H29.3333V38H18.6667V40.6667H24V43.3333H18.6667V46H21.3333V51.3333H24V48.6667H29.3333V54H32V43.3333H34.6667V48.6667H42.6667V51.3333H37.3333V54H42.6667V56.6667ZM45.3333 43.3333H48V46H45.3333V43.3333ZM40 46H37.3333V43.3333H40V46Z" fill="black"/>
<path d="M86.072 33.696V68H80.44V33.696H86.072ZM83.32 20.832C84.1733 20.832 84.92 21.1307 85.56 21.728C86.2427 22.2827 86.584 23.1787 86.584 24.416C86.584 25.6107 86.2427 26.5067 85.56 27.104C84.92 27.7013 84.1733 28 83.32 28C82.3813 28 81.592 27.7013 80.952 27.104C80.312 26.5067 79.992 25.6107 79.992 24.416C79.992 23.1787 80.312 22.2827 80.952 21.728C81.592 21.1307 82.3813 20.832 83.32 20.832ZM108.396 64.032C109.249 64.032 110.124 63.968 111.02 63.84C111.916 63.6693 112.641 63.4987 113.196 63.328V67.616C112.599 67.9147 111.745 68.1493 110.636 68.32C109.527 68.5333 108.46 68.64 107.436 68.64C105.644 68.64 103.98 68.3413 102.444 67.744C100.951 67.104 99.7347 66.016 98.796 64.48C97.8573 62.944 97.388 60.7893 97.388 58.016V38.048H92.524V35.36L97.452 33.12L99.692 25.824H103.02V33.696H112.94V38.048H103.02V57.888C103.02 59.9787 103.511 61.536 104.492 62.56C105.516 63.5413 106.817 64.032 108.396 64.032ZM142.401 58.528C142.401 60.7467 141.846 62.6027 140.737 64.096C139.628 65.5893 138.049 66.72 136.001 67.488C133.953 68.256 131.521 68.64 128.705 68.64C126.316 68.64 124.246 68.448 122.497 68.064C120.79 67.68 119.276 67.1467 117.953 66.464V61.344C119.318 62.0267 120.961 62.6667 122.881 63.264C124.844 63.8187 126.828 64.096 128.833 64.096C131.692 64.096 133.761 63.648 135.041 62.752C136.321 61.8133 136.961 60.576 136.961 59.04C136.961 58.1867 136.726 57.4187 136.257 56.736C135.788 56.0533 134.934 55.3707 133.697 54.688C132.502 54.0053 130.774 53.2373 128.513 52.384C126.294 51.5307 124.396 50.6773 122.817 49.824C121.238 48.9707 120.022 47.9467 119.169 46.752C118.316 45.5573 117.889 44.0213 117.889 42.144C117.889 39.2427 119.062 37.0027 121.409 35.424C123.798 33.8453 126.913 33.056 130.753 33.056C132.844 33.056 134.785 33.2693 136.577 33.696C138.412 34.08 140.118 34.6347 141.697 35.36L139.777 39.84C138.838 39.4133 137.836 39.0507 136.769 38.752C135.745 38.4107 134.7 38.1547 133.633 37.984C132.566 37.7707 131.478 37.664 130.369 37.664C128.065 37.664 126.294 38.048 125.057 38.816C123.862 39.5413 123.265 40.544 123.265 41.824C123.265 42.7627 123.542 43.5733 124.097 44.256C124.652 44.896 125.569 45.536 126.849 46.176C128.172 46.7733 129.921 47.4987 132.097 48.352C134.273 49.1627 136.129 49.9947 137.665 50.848C139.201 51.7013 140.374 52.7467 141.185 53.984C141.996 55.1787 142.401 56.6933 142.401 58.528ZM254.135 33.056C258.017 33.056 260.919 34.0587 262.839 36.064C264.759 38.0267 265.719 41.2267 265.719 45.664V68H260.151V45.92C260.151 43.232 259.575 41.2053 258.423 39.84C257.313 38.4747 255.564 37.792 253.175 37.792C249.847 37.792 247.457 38.752 246.007 40.672C244.599 42.592 243.895 45.3867 243.895 49.056V68H238.327V45.92C238.327 44.128 238.071 42.6347 237.559 41.44C237.047 40.2027 236.279 39.2853 235.255 38.688C234.231 38.0907 232.908 37.792 231.287 37.792C228.983 37.792 227.169 38.2827 225.847 39.264C224.524 40.2027 223.564 41.5893 222.967 43.424C222.412 45.2587 222.135 47.52 222.135 50.208V68H216.503V33.696H221.047L221.879 38.368H222.199C222.924 37.1733 223.799 36.192 224.823 35.424C225.889 34.6133 227.063 34.016 228.343 33.632C229.623 33.248 230.945 33.056 232.311 33.056C234.956 33.056 237.153 33.5253 238.903 34.464C240.695 35.4027 241.996 36.8533 242.807 38.816H243.127C244.279 36.8533 245.836 35.4027 247.799 34.464C249.804 33.5253 251.916 33.056 254.135 33.056ZM289.563 33.056C292.507 33.056 295.024 33.696 297.115 34.976C299.248 36.256 300.87 38.0693 301.979 40.416C303.131 42.72 303.707 45.4293 303.707 48.544V51.936H280.219C280.304 55.8187 281.286 58.784 283.163 60.832C285.083 62.8373 287.75 63.84 291.163 63.84C293.339 63.84 295.259 63.648 296.923 63.264C298.63 62.8373 300.379 62.24 302.171 61.472V66.4C300.422 67.168 298.694 67.7227 296.987 68.064C295.28 68.448 293.254 68.64 290.907 68.64C287.664 68.64 284.784 67.9787 282.267 66.656C279.792 65.3333 277.851 63.3707 276.443 60.768C275.078 58.1227 274.395 54.9013 274.395 51.104C274.395 47.3493 275.014 44.128 276.251 41.44C277.531 38.752 279.302 36.6827 281.563 35.232C283.867 33.7813 286.534 33.056 289.563 33.056ZM289.499 37.664C286.811 37.664 284.678 38.5387 283.099 40.288C281.563 41.9947 280.646 44.384 280.347 47.456H297.819C297.819 45.4933 297.52 43.7867 296.923 42.336C296.326 40.8853 295.408 39.7547 294.171 38.944C292.976 38.0907 291.419 37.664 289.499 37.664ZM328.952 33.056C333.048 33.056 336.141 34.0587 338.232 36.064C340.323 38.0267 341.368 41.2267 341.368 45.664V68H335.8V46.048C335.8 43.2747 335.181 41.2053 333.944 39.84C332.707 38.4747 330.765 37.792 328.12 37.792C324.323 37.792 321.699 38.8587 320.248 40.992C318.797 43.1253 318.072 46.1973 318.072 50.208V68H312.44V33.696H316.984L317.816 38.368H318.136C318.904 37.1733 319.843 36.192 320.952 35.424C322.104 34.6133 323.363 34.016 324.728 33.632C326.093 33.248 327.501 33.056 328.952 33.056ZM380.675 33.696V68H376.067L375.235 63.456H374.979C374.253 64.6507 373.315 65.632 372.163 66.4C371.011 67.168 369.752 67.7227 368.387 68.064C367.021 68.448 365.592 68.64 364.099 68.64C361.368 68.64 359.064 68.2133 357.187 67.36C355.352 66.464 353.965 65.0987 353.027 63.264C352.088 61.4293 351.619 59.0613 351.619 56.16V33.696H357.315V55.776C357.315 58.5067 357.933 60.5547 359.171 61.92C360.408 63.2853 362.328 63.968 364.931 63.968C367.491 63.968 369.496 63.4987 370.947 62.56C372.44 61.5787 373.485 60.1707 374.083 58.336C374.723 56.4587 375.043 54.1973 375.043 51.552V33.696H380.675Z" fill="black"/>
<path d="M173.538 68.704C173.538 67.936 173.559 67.04 173.602 66.016C173.645 64.992 173.73 64.1173 173.858 63.392H173.474C172.493 64.8427 171.127 66.08 169.378 67.104C167.671 68.128 165.453 68.64 162.722 68.64C158.583 68.64 155.213 67.168 152.61 64.224C150.05 61.2373 148.77 56.8 148.77 50.912C148.77 46.9867 149.367 43.7013 150.562 41.056C151.757 38.4107 153.421 36.4267 155.554 35.104C157.687 33.7387 160.141 33.056 162.914 33.056C165.602 33.056 167.799 33.568 169.506 34.592C171.213 35.616 172.578 36.8747 173.602 38.368H173.858L174.69 33.696H179.17V83.36H173.538V68.704ZM163.81 63.968C166.157 63.968 168.034 63.5413 169.442 62.688C170.893 61.8347 171.938 60.5333 172.578 58.784C173.218 56.992 173.559 54.7733 173.602 52.128V50.976C173.602 46.624 172.877 43.3387 171.426 41.12C169.975 38.8587 167.394 37.728 163.682 37.728C160.61 37.728 158.327 38.944 156.834 41.376C155.341 43.7653 154.594 46.9867 154.594 51.04C154.594 55.0933 155.341 58.272 156.834 60.576C158.37 62.8373 160.695 63.968 163.81 63.968ZM206.065 33.056C206.705 33.056 207.388 33.0987 208.113 33.184C208.881 33.2267 209.542 33.312 210.097 33.44L209.393 38.624C208.838 38.496 208.22 38.3893 207.537 38.304C206.897 38.2187 206.278 38.176 205.681 38.176C204.358 38.176 203.1 38.4533 201.905 39.008C200.71 39.5627 199.644 40.352 198.705 41.376C197.766 42.3573 197.02 43.552 196.465 44.96C195.953 46.368 195.697 47.9467 195.697 49.696V68H190.065V33.696H194.673L195.313 39.968H195.569C196.294 38.688 197.169 37.536 198.193 36.512C199.217 35.4453 200.39 34.6133 201.713 34.016C203.036 33.376 204.486 33.056 206.065 33.056Z" fill="#8AC926"/>
</svg>
